#tb 0: 1/1
#media_type 0: video
#codec_id 0: rawvideo
#dimensions 0: 512x512
#sar 0: 0/1
0,          0,          0,        1,   393216, 0xdc998fa2
0,          1,          1,        1,   393216, 0x979a8fbd
0,          2,          2,        1,   393216, 0x979a8fbd
0,          3,          3,        1,   393216, 0x979a8fbd
0,          4,          4,        1,   393216, 0x979a8fbd
0,          5,          5,        1,   393216, 0x979a8fbd
0,          6,          6,        1,   393216, 0x979a8fbd
0,          7,          7,        1,   393216, 0x979a8fbd
0,          8,          8,        1,   393216, 0x979a8fbd
0,          9,          9,        1,   393216, 0x979a8fbd
